<svg preserveAspectRatio="none" overflow="visible" style="display: block;" width="8.26667" height="5.68333" viewBox="0 0 8.26667 5.68333" fill="none" xmlns="http://www.w3.org/2000/svg">
<g id="Frame" clip-path="url(#clip0_0_11)">
<path id="Vector" d="M1.13669 3.61689H0.413354C0.185076 3.61689 2.03451e-05 3.80195 2.03451e-05 4.03023V5.27023C2.03451e-05 5.49851 0.185076 5.68356 0.413354 5.68356H1.13669C1.36496 5.68356 1.55002 5.49851 1.55002 5.27023V4.03023C1.55002 3.80195 1.36496 3.61689 1.13669 3.61689Z" fill="#09090B"/>
<path id="Vector_2" d="M3.46169 2.58356H2.73835C2.51008 2.58356 2.32502 2.76862 2.32502 2.99689V5.27023C2.32502 5.49851 2.51008 5.68356 2.73835 5.68356H3.46169C3.68996 5.68356 3.87502 5.49851 3.87502 5.27023V2.99689C3.87502 2.76862 3.68996 2.58356 3.46169 2.58356Z" fill="#09090B"/>
<path id="Vector_3" d="M5.78669 1.29189H5.06335C4.83508 1.29189 4.65002 1.47695 4.65002 1.70523V5.27023C4.65002 5.49851 4.83508 5.68356 5.06335 5.68356H5.78669C6.01496 5.68356 6.20002 5.49851 6.20002 5.27023V1.70523C6.20002 1.47695 6.01496 1.29189 5.78669 1.29189Z" fill="#09090B"/>
<path id="Vector_4" opacity="0.3" d="M7.85335 0.000227865H7.38835C7.16008 0.000227865 6.97502 0.185283 6.97502 0.413561V5.27023C6.97502 5.49851 7.16008 5.68356 7.38835 5.68356H7.85335C8.08163 5.68356 8.26669 5.49851 8.26669 5.27023V0.413561C8.26669 0.185283 8.08163 0.000227865 7.85335 0.000227865Z" fill="#09090B"/>
</g>
<defs>
<clipPath id="clip0_0_11">
<rect width="8.26667" height="5.68333" fill="white"/>
</clipPath>
</defs>
</svg>
